<?xml version="1.0" encoding="UTF-8"?>
<svg version="1.1" xmlns="http://www.w3.org/2000/svg" width="2000" height="1000">
<path d="M0 0 C4.23677506 1.7917815 8.47921802 3.56996664 12.72123718 5.34928894 C14.92387907 6.27340901 17.12621871 7.19824979 19.32826233 8.12379456 C30.39081183 12.77222508 41.48080627 17.35313383 52.57498169 21.92544556 C56.38114521 23.49533661 60.18707468 25.06579453 63.99295044 26.63638306 C64.92189621 27.01967773 65.85084198 27.40297241 66.80793762 27.79788208 C75.81158972 31.51395424 84.80887327 35.24532298 93.80529785 38.97885132 C115.67653436 48.05531237 137.56549376 57.08803563 159.47732544 66.06607056 C181.33427262 75.02221652 203.16567449 84.03799374 224.98025513 93.09683228 C232.67744114 96.29291772 240.37660533 99.48423229 248.07562256 102.67590332 C252.35280976 104.44905057 256.62992073 106.22238168 260.90701294 107.99575806 C261.75368027 108.34680099 262.6003476 108.69784393 263.47267151 109.05952454 C268.54758806 111.16377297 273.62223264 113.26867575 278.69665527 115.37411499 C297.50392855 123.1774458 316.31646374 130.96781858 335.13748169 138.73794556 C354.79736168 146.85439092 374.44753885 154.99401305 394.0930481 163.14517212 C399.18438529 165.25754199 404.27611205 167.36897163 409.36795044 169.48013306 C410.21458252 169.83116089 411.0612146 170.18218872 411.9335022 170.54385376 C414.50148905 171.60856624 417.0694838 172.6732597 419.63748169 173.73794556 C438.46649694 181.54441081 438.46649694 181.54441081 447.69665527 185.37411499 C466.50392874 193.17744588 485.31650375 200.96772136 504.13748169 208.73794556 C537.51116613 222.51678061 537.51116613 222.51678061 553.29763794 229.08096313 C554.95517159 229.77005369 556.61272357 230.45910018 558.27029419 231.14810181 C559.48848846 231.65449944 559.48848846 231.65449944 560.73129272 232.17112732 C565.75813155 234.25804996 570.79216147 236.32652819 575.83203125 238.3817749 C579.14900692 239.73552819 582.4629598 241.09658602 585.77658081 242.45852661 C587.32383422 243.0922121 588.87249793 243.72246742 590.42269897 244.34890747 C604.04060132 249.85380101 615.16387487 254.9789075 621.44998169 268.98794556 C627.19996033 284.87923673 620.75838298 298.29067214 614.51303101 312.97021484 C613.19316135 316.07305502 611.88764432 319.18188145 610.5809021 322.29026794 C609.87500301 323.96909396 609.16840648 325.64762687 608.46115112 327.32588196 C604.5828574 336.53414399 600.77293797 345.77040662 596.96514893 355.00799561 C594.94350038 359.91214389 592.91941115 364.81528442 590.89529419 369.71841431 C590.49530716 370.68742172 590.09532013 371.65642914 589.68321228 372.65480042 C585.67872915 382.35364849 581.65918503 392.04622822 577.63748169 401.73794556 C571.62326505 416.23209135 565.62537847 430.732907 559.63748169 445.23794556 C553.30376638 460.58069247 546.95693731 475.91790795 540.5954895 491.24917603 C534.92904385 504.90642318 529.27956004 518.57061509 523.63748169 532.23794556 C517.30376638 547.58069247 510.95693731 562.91790795 504.5954895 578.24917603 C498.92904385 591.90642318 493.27956004 605.57061509 487.63748169 619.23794556 C481.30376638 634.58069247 474.95693731 649.91790795 468.5954895 665.24917603 C462.92904385 678.90642318 457.27956004 692.57061509 451.63748169 706.23794556 C445.30376638 721.58069247 438.95693731 736.91790795 432.5954895 752.24917603 C426.92904379 765.90642333 421.27963034 779.57064401 415.63748169 793.23794556 C407.87676315 812.03644903 400.09571667 830.82643026 392.30084229 849.61079407 C389.38621765 856.63568085 386.47711028 863.66284496 383.56936646 870.69058228 C381.7538681 875.0773376 379.93594303 879.4630545 378.11209106 883.84634399 C377.5918335 885.0967749 377.5918335 885.0967749 377.06106567 886.37246704 C376.37837092 888.01329025 375.69559246 889.65407864 375.01272583 891.29483032 C373.20101256 895.65464217 371.4085343 900.02136011 369.64276123 904.39997864 C368.44259258 907.37084858 367.22530977 910.33472545 366.01248169 913.30044556 C365.61174438 914.31614624 365.21100708 915.33184692 364.79812622 916.37832642 C360.95787509 925.68688332 355.34494608 932.83437563 346.13748169 937.23794556 C332.78015033 942.75897585 321.61295504 939.95739654 308.76837158 934.67469788 C305.38646791 933.26457725 302.01138525 931.83882679 298.6388855 930.40637207 C293.84864539 928.37212194 289.05102662 926.3553753 284.25466919 924.33560181 C283.25771027 923.91521133 282.26075134 923.49482086 281.23358154 923.06169128 C270.51549957 918.5455427 259.76573792 914.10703455 249.01248169 909.67544556 C245.16081908 908.08714657 241.30930194 906.498495 237.45779419 904.90982056 C236.51317322 904.52025681 235.56855225 904.13069305 234.5953064 903.72932434 C225.54673283 899.9966348 216.50515197 896.24716544 207.46463013 892.49502563 C185.53701221 883.39452411 163.5918659 874.33721576 141.62185669 865.33950806 C125.19035652 858.60917215 108.77064864 851.85344781 92.38543701 845.0111084 C79.41980268 839.59712578 66.43806893 834.22282842 53.44998169 828.86294556 C38.73700987 822.79075852 24.02711419 816.71133517 9.32498169 810.61294556 C8.0680249 810.09160034 8.0680249 810.09160034 6.78567505 809.5597229 C0.06583314 806.77245328 -6.65366405 803.98435302 -13.37313843 801.19619751 C-19.26526622 798.75138111 -25.15755376 796.30695018 -31.05001831 793.86294556 C-31.88637817 793.51602661 -32.72273804 793.16910767 -33.58444214 792.81167603 C-48.4243677 786.65676309 -63.27371442 780.52479025 -78.12432861 774.39572144 C-90.71333303 769.19933715 -103.29412757 763.9839847 -115.86251831 758.73794556 C-135.2038738 750.66544563 -154.57753021 742.67151736 -173.9513855 734.67739868 C-182.63485573 731.09417561 -191.31686522 727.50741624 -199.9989624 723.92086792 C-204.78026353 721.94573343 -209.5616161 719.9707235 -214.34298706 717.99575806 C-215.76463921 717.4085347 -215.76463921 717.4085347 -217.2150116 716.80944824 C-222.04088207 714.81616561 -226.86687717 712.82318537 -231.69308472 710.83071899 C-233.13957901 710.23352554 -233.13957901 710.23352554 -234.61529541 709.62426758 C-236.56333461 708.82010473 -238.51143436 708.01608851 -240.45959473 707.21221924 C-245.26978365 705.22705152 -250.07871701 703.23895078 -254.88497925 701.24429321 C-263.44495919 697.69448115 -272.0103739 694.16467756 -280.61976624 690.73608398 C-284.39248123 689.23175432 -288.15890481 687.71203325 -291.92486572 686.19088745 C-293.68692322 685.48417573 -295.45201015 684.78496088 -297.22033691 684.09408569 C-309.06382849 679.46450935 -320.43645615 674.57232771 -326.42501831 662.48794556 C-327.1075769 661.16536743 -327.1075769 661.16536743 -327.80392456 659.81607056 C-331.83186873 650.00631724 -330.76286441 638.86172231 -326.86837769 629.24234009 C-326.18485229 627.66235229 -326.18485229 627.66235229 -325.48751831 626.05044556 C-325.00347534 624.87594849 -324.51943237 623.70145142 -324.02072144 622.49136353 C-322.63744195 619.1375049 -321.22256985 615.79773407 -319.80307007 612.45907593 C-318.11484137 608.47229264 -316.45575403 604.47335515 -314.79220581 600.47622681 C-312.15876788 594.15693028 -309.5151194 587.84204058 -306.8608551 581.53146362 C-301.666963 569.1827222 -296.53288361 556.80999198 -291.42501831 544.42544556 C-291.03209595 543.47300964 -290.63917358 542.52057373 -290.23434448 541.53927612 C-288.24016556 536.70519642 -286.24668975 531.87082728 -284.25363159 527.0362854 C-280.6895307 518.39193622 -277.1187496 509.75034628 -273.54846191 501.10855103 C-271.57219611 496.32495136 -269.59625096 491.54121926 -267.62033081 486.75747681 C-267.22886368 485.80974396 -266.83739655 484.86201111 -266.43406677 483.88555908 C-264.03840022 478.08549835 -261.64333945 472.28518784 -259.24871826 466.48469543 C-248.13132261 439.55506465 -236.98654793 412.63692813 -225.82077026 385.72732544 C-223.37595386 379.83519765 -220.9314828 373.94292676 -218.48751831 368.05044556 C-218.13993469 367.21242401 -217.79235107 366.37440247 -217.43423462 365.51098633 C-211.32678587 350.7842766 -205.23863175 336.04963591 -199.15505981 321.31304932 C-193.22357222 306.94537809 -187.2777289 292.58374127 -181.32052612 278.22671509 C-175.65408048 264.56946793 -170.00459667 250.90527603 -164.36251831 237.23794556 C-158.028803 221.89519865 -151.68197393 206.55798316 -145.32052612 191.22671509 C-139.65408048 177.56946793 -134.00459667 163.90527603 -128.36251831 150.23794556 C-122.03018296 134.89854146 -115.68540279 119.56438816 -109.32455444 104.23678589 C-104.80598029 93.34799352 -100.29819555 82.45482456 -95.8026123 71.55651855 C-92.59988914 63.79247816 -89.39267328 56.03030491 -86.18218994 48.26947021 C-84.07621736 43.17771035 -81.97564102 38.08378762 -79.88082886 32.98742676 C-78.69399876 30.10414285 -77.50129668 27.22331817 -76.30673218 24.3432312 C-75.77105765 23.04834518 -75.23783196 21.75244269 -74.70736694 20.45541382 C-69.76636956 8.38032379 -64.43098531 -3.37610855 -51.88986206 -8.98471069 C-33.48090269 -16.04325196 -16.96748811 -7.17584325 0 0 Z " fill="#739BF2" transform="translate(357.8625183105469,35.762054443359375)"/>
<path d="M0 0 C25.74 0 51.48 0 78 0 C87.70207658 24.55219379 97.37211311 49.11669799 107.02197266 73.68945312 C111.84164395 85.96214143 116.66369925 98.23385509 121.5 110.5 C126.81811141 123.9881449 132.11874465 137.48313184 137.41845703 150.97851562 C144.0993054 167.99082679 150.78238383 185.00216939 157.5 202 C163.53991816 217.28417763 169.55447177 232.57826021 175.5625 247.875 C176.02633087 249.05592224 176.49016174 250.23684448 176.9680481 251.45355225 C180.79512365 261.19774232 184.6213878 270.94225097 188.44763184 280.68676758 C191.77721931 289.16632316 195.10710864 297.64576011 198.4375 306.125 C198.90189484 307.30737244 199.36628967 308.48974487 199.84475708 309.70794678 C205.6724409 324.54429831 211.51079894 339.37634264 217.36965942 354.20040894 C221.32793988 364.21646179 225.27420869 374.23717402 229.2109375 384.26171875 C229.67094147 385.43307373 230.13094543 386.60442871 230.60488892 387.8112793 C232.96994311 393.83433509 235.33418278 399.85770974 237.69775391 405.88134766 C242.17451698 417.28690022 246.6626321 428.68765466 251.1875 440.07421875 C251.59001984 441.08806137 251.99253967 442.10190399 252.40725708 443.14646912 C254.2919285 447.89318089 256.17977621 452.63857621 258.07373047 457.3815918 C258.73419504 459.04339919 259.39452278 460.70526097 260.0546875 462.3671875 C260.35665039 463.11953171 260.65861328 463.87187592 260.96972656 464.64701843 C263 469.77283083 263 469.77283083 263 472 C238.58 472 214.16 472 189 472 C185.83813008 465.04388618 182.82317689 458.21139426 180.13671875 451.0859375 C179.61291122 449.71064629 179.61291122 449.71064629 179.07852173 448.30757141 C178.33202204 446.3469109 177.58701982 444.38567967 176.84341431 442.42391968 C174.8590526 437.18982973 172.86277612 431.96028635 170.8671875 426.73046875 C170.46178238 425.66735977 170.05637726 424.60425079 169.63868713 423.50892639 C165.5817996 412.88149833 161.45704848 402.28099841 157.3125 391.6875 C156.99115082 390.86602478 156.66980164 390.04454956 156.3387146 389.19818115 C155.71301952 387.5989833 155.08718302 385.99984078 154.4611969 384.40075684 C153.86223133 382.87011948 153.26377752 381.33928175 152.6658783 379.80822754 C151.11900359 375.84863248 149.56151402 371.89363402 147.98974609 367.94384766 C147.34081125 366.30241244 146.69188518 364.66097375 146.04296875 363.01953125 C145.58438225 361.87734383 145.58438225 361.87734383 145.11653137 360.71208191 C143.91711789 357.66699909 143 355.30386279 143 352 C73.37 352.33 3.74 352.66 -68 353 C-79.91071491 383.43651749 -79.91071491 383.43651749 -91.81640625 413.875 C-94.25195312 420.09765625 -94.25195312 420.09765625 -95.40844727 423.05126953 C-96.19453914 425.05981992 -96.97999556 427.0686191 -97.76489258 429.07763672 C-98.96795162 432.15655788 -100.1732344 435.23460119 -101.37890625 438.3125 C-101.71346329 439.17020996 -102.04802032 440.02791992 -102.39271545 440.91162109 C-106.47735198 451.32444307 -110.76344162 461.64396841 -115 472 C-139.09 472 -163.18 472 -188 472 C-187.29752923 468.48764617 -186.66409041 465.84622873 -185.37515259 462.61489868 C-184.87156471 461.34337952 -184.87156471 461.34337952 -184.35780334 460.0461731 C-183.98916672 459.12810883 -183.62053009 458.21004456 -183.24072266 457.26416016 C-182.65717766 455.79623016 -182.65717766 455.79623016 -182.06184387 454.29864502 C-180.76670592 451.04379168 -179.46543767 447.79142653 -178.1640625 444.5390625 C-177.24659786 442.23755218 -176.3294799 439.93590362 -175.41268921 437.63412476 C-173.47660406 432.77571896 -171.53786026 427.9183835 -169.59667969 423.06201172 C-167.16937027 416.98943479 -164.74677772 410.91498725 -162.32591629 404.83983707 C-151.13358669 376.75394127 -139.8576668 348.70281433 -128.51095772 320.67898083 C-120.64118663 301.23672398 -112.82291033 281.77364628 -105 262.3125 C-104.5467485 261.18511665 -104.09349701 260.05773331 -103.62651062 258.89618683 C-88.64752844 221.63768024 -73.75531385 184.34529564 -58.91991806 147.0294075 C-39.41394445 97.96553016 -19.73207922 48.97332962 0 0 Z " fill="#FEFEFE" transform="translate(382,215)"/>
<path d="M0 0 C19.14 0 38.28 0 58 0 C68.66512909 26.28577271 79.29922703 52.58390336 89.91789246 78.88847351 C93.01217462 86.55357454 96.10734431 94.21831658 99.203125 101.8828125 C99.63012695 102.9400502 100.05712891 103.9972879 100.49707031 105.08656311 C102.64543605 110.40576975 104.79412121 115.72484698 106.94335938 121.04370117 C111.20810649 131.59960283 115.46751495 142.15761511 119.71530151 152.72035217 C121.57471481 157.34404963 123.43571205 161.96710911 125.29699898 166.5900526 C126.58145269 169.78069897 127.86492928 172.97173139 129.1461792 176.16366577 C130.56656593 179.70116256 131.99000109 183.23741871 133.4140625 186.7734375 C133.83496155 187.82407883 134.2558606 188.87472015 134.68951416 189.9571991 C136.62068975 194.74436749 138.58930841 199.43375238 141 204 C141.3403125 203.11892578 141.680625 202.23785156 142.03125 201.33007812 C143.38598944 197.8246063 144.74394298 194.32038495 146.10253906 190.81640625 C146.67298289 189.34405288 147.24272488 187.87142725 147.81152344 186.3984375 C153.27855082 172.24380662 158.92433158 158.16122802 164.5663147 144.07572937 C169.4440707 131.89707619 174.30418663 119.71154971 179.1484375 107.51953125 C179.48390909 106.67530294 179.81938068 105.83107464 180.16501808 104.96126366 C181.87258567 100.66395175 183.57984483 96.36651741 185.28689575 92.06900024 C188.86300852 83.06626422 192.44093151 74.0642477 196.01953125 65.0625 C196.36855185 64.18455591 196.71757244 63.30661182 197.07716942 62.40206337 C205.35222099 41.58827256 213.66847693 20.7912783 222 0 C241.14 0 260.28 0 280 0 C280 84.81 280 169.62 280 257 C267.13 257 254.26 257 241 257 C240.67 192.65 240.34 128.3 240 62 C234.39 75.86 228.78 89.72 223 104 C219.73392323 112.02282448 216.46553139 120.04457404 213.1875 128.0625 C212.35491125 130.10047628 211.52239413 132.13848182 210.68994141 134.17651367 C208.97926011 138.3645253 207.26828655 142.55241735 205.55712891 146.74023438 C202.58637454 154.0115593 199.61887524 161.28421122 196.65161133 168.55696106 C193.33545493 176.68470821 190.01738285 184.81167198 186.69873047 192.93840027 C184.19046351 199.08151545 181.68514584 205.22582464 179.18182373 211.37095642 C177.53537517 215.41160134 175.88715737 219.4515231 174.23858643 223.49130249 C173.4664414 225.38455849 172.69505443 227.27812386 171.92449951 229.17202759 C170.85924628 231.78999634 169.79124765 234.40682986 168.72265625 237.0234375 C168.41829147 237.77339493 168.1139267 238.52335236 167.80033875 239.29603577 C165.35072524 245.28181949 162.68282248 251.09779054 160 257 C147.13 257 134.26 257 121 257 C112.61956959 237.37582545 104.25428013 217.75480816 96.1875 198 C90.20490752 183.35006066 84.1571348 168.72870272 78.0625 154.125 C77.64133911 153.11580505 77.22017822 152.10661011 76.78625488 151.0668335 C76.36598022 150.05977356 75.94570557 149.05271362 75.51269531 148.01513672 C74.66729214 145.98926848 73.82191445 143.96338961 72.9765625 141.9375 C72.56011475 140.939534 72.14366699 139.94156799 71.71459961 138.9133606 C68.91266807 132.19597411 66.12052323 125.47459443 63.3359375 118.75 C62.9616008 117.84611542 62.5872641 116.94223083 62.20158386 116.01095581 C60.46438316 111.81536347 58.72848311 107.61923875 56.99438477 103.42236328 C51.40442314 89.91502107 45.69658085 76.46464564 40 63 C39.67 127.02 39.34 191.04 39 257 C26.13 257 13.26 257 0 257 C0 172.19 0 87.38 0 0 Z " fill="#5170FF" transform="translate(1581,132)"/>
<path d="M0 0 C12.87 0 25.74 0 39 0 C39 35.64 39 71.28 39 108 C83.55 108 128.1 108 174 108 C174 72.36 174 36.72 174 0 C186.87 0 199.74 0 213 0 C213 85.14 213 170.28 213 258 C200.13 258 187.26 258 174 258 C174 220.05 174 182.1 174 143 C129.45 143 84.9 143 39 143 C39 180.95 39 218.9 39 258 C26.13 258 13.26 258 0 258 C0 172.86 0 87.72 0 0 Z " fill="#5170FF" transform="translate(1079,657)"/>
<path d="M0 0 C12.87 0 25.74 0 39 0 C39.33 28.38 39.66 56.76 40 86 C46.93 80.555 46.93 80.555 54 75 C56.70940158 73.32460947 59.10110375 71.87937053 61.9375 70.5625 C62.60604004 70.24667969 63.27458008 69.93085937 63.96337891 69.60546875 C82.78892628 61.01573043 106.15370511 59.6387026 126 66 C133.91867724 69.01960808 141.2683107 72.84226683 148 78 C148.79921875 78.61101562 149.5984375 79.22203125 150.421875 79.8515625 C169.94433346 96.03943955 177.47755574 121.3583201 180.03344727 145.69580078 C182.89004753 176.96095323 179.8636881 210.29082688 159.83984375 235.74609375 C144.80536134 253.16700194 125.67391041 261.0083219 103.09082031 262.87231445 C80.04936103 264.27944701 58.36691196 256.77518397 40 243 C39.67 247.62 39.34 252.24 39 257 C26.13 257 13.26 257 0 257 C0 172.19 0 87.38 0 0 Z M47 114 C46.36482956 114.34003555 45.72965912 114.68007111 45.07524109 115.03041077 C41.87587939 117.07116528 39.50842164 119.05866367 38.51353645 122.85749245 C37.67266034 128.73944508 37.77714933 134.68838643 37.796875 140.6171875 C37.78131194 142.55861874 37.76397011 144.50003647 37.74493408 146.44143677 C37.71513892 150.50518993 37.71620637 154.56755294 37.73730469 158.63134766 C37.76047821 163.82384262 37.69278775 169.01062656 37.59992599 174.20217705 C37.5408072 178.21067191 37.53751035 182.21780423 37.5499649 186.22665787 C37.54792001 188.13960203 37.5271156 190.05262647 37.48671722 191.96514511 C36.95200237 201.7571168 36.95200237 201.7571168 40.18432045 210.68134689 C43.34841091 213.88933933 46.98518254 215.9701197 51 218 C51.7059581 218.41803894 52.4119162 218.83607788 53.13926697 219.26678467 C56.92962675 221.47852426 60.99297965 223.21964108 65 225 C66.13308594 225.50853516 66.13308594 225.50853516 67.2890625 226.02734375 C80.78858996 231.26557738 96.80138162 231.11414361 110.3125 226.3125 C123.894905 220.27834958 131.82580775 209.24396649 137.28808594 195.87646484 C145.88901367 173.2061183 143.81847544 144.92526765 134 123 C127.24177994 110.17755803 118.43094382 101.66353824 104.46484375 97.1875 C83.07037443 92.17806328 63.05739144 100.03091606 47 114 Z " fill="#5170FF" transform="translate(1660,658)"/>
<path d="M0 0 C12.87 0 25.74 0 39 0 C39.0093457 3.87000732 39.01869141 7.74001465 39.02832031 11.72729492 C39.06215545 24.54367192 39.11754195 37.35988082 39.18390274 50.17612743 C39.22359761 57.94318647 39.25603833 65.71014559 39.27099609 73.47729492 C39.28406245 80.25250011 39.31115294 87.02748457 39.35461307 93.8025654 C39.37711683 97.38512142 39.39291742 100.96740633 39.39188385 104.55003929 C39.39099005 108.56385938 39.421427 112.57688874 39.45410156 116.59057617 C39.4490712 117.75943359 39.44404083 118.92829102 39.43885803 120.13256836 C39.59099251 132.28895584 42.30174849 143.17672229 51 152 C60.0556739 160.72317616 70.91548391 162.56483156 83.05957031 162.40454102 C89.37719218 162.18649584 95.09774328 161.36860547 101 159 C101.80050781 158.68289063 102.60101562 158.36578125 103.42578125 158.0390625 C111.67886381 154.32714977 119.60503192 148.39496808 126 142 C126.31529522 139.42417943 126.31529522 139.42417943 126.2784729 136.36862183 C126.28963638 135.17106262 126.30079987 133.97350342 126.31230164 132.73965454 C126.31466682 131.405701 126.31684243 130.0717471 126.31884766 128.73779297 C126.32814192 127.33849505 126.33830984 125.9392027 126.34928894 124.53991699 C126.37665971 120.73438351 126.39175919 116.92888719 126.40471697 113.123281 C126.42031667 109.148723 126.44711689 105.17424124 126.4727478 101.19973755 C126.51959174 93.6703981 126.55630859 86.14104441 126.58942068 78.61163342 C126.62760249 70.0409655 126.6770229 61.47037404 126.72740483 52.8997705 C126.83080819 35.26656301 126.91855737 17.63332354 127 0 C139.87 0 152.74 0 166 0 C166 62.37 166 124.74 166 189 C153.13 189 140.26 189 127 189 C126.67 182.4 126.34 175.8 126 169 C124.30875 170.485 122.6175 171.97 120.875 173.5 C104.88510362 187.05877495 84.23483219 196.05502424 62.98828125 195.28125 C44.88219924 193.57714816 27.12517678 189.93196627 14.7890625 175.39453125 C2.91798658 159.75030667 -0.16821372 143.78305152 -0.11352539 124.53735352 C-0.11324298 123.1767324 -0.1134023 121.81611114 -0.1139679 120.45549011 C-0.11425378 116.77832247 -0.10839079 113.10118771 -0.10139394 109.42402768 C-0.09512566 105.57499946 -0.09455386 101.72597041 -0.09336853 97.87693787 C-0.09026544 90.59564087 -0.08206587 83.31435896 -0.07201904 76.0330686 C-0.06082612 67.74044219 -0.05533945 59.44781504 -0.05032361 51.15518296 C-0.03988237 34.10344509 -0.02154963 17.051728 0 0 Z " fill="#5170FF" transform="translate(1396,726)"/>
<path d="M0 0 C0.66 0 1.32 0 2 0 C2.19806244 0.52203506 2.39612488 1.04407013 2.60018921 1.58192444 C13.94328505 31.47667875 25.33092356 61.35390525 36.77929688 91.20849609 C40.45916032 100.80484834 44.13607723 110.40232918 47.8125 120 C48.17368927 120.94279816 48.53487854 121.88559631 48.90701294 122.85696411 C53.52217396 134.90444586 58.12986759 146.95476411 62.73046875 159.0078125 C62.97157694 159.63946068 63.21268513 160.27110886 63.46109962 160.92189789 C66.06582636 167.74578176 68.66977549 174.56996162 71.27270508 181.39453125 C72.12971621 183.64062647 72.98673099 185.88672029 73.84375 188.1328125 C74.43152473 189.67474777 74.43152473 189.67474777 75.03117371 191.24783325 C75.57551811 192.67420609 75.57551811 192.67420609 76.13085938 194.12939453 C76.44518921 194.95359894 76.75951904 195.77780334 77.08337402 196.62698364 C77.73055709 198.30245001 78.41181065 199.9649463 79.11682129 201.61691284 C80 204 80 204 80 207 C26.87 207 -26.26 207 -81 207 C-80.25217118 203.26085589 -79.47875223 200.37203569 -78.10498047 196.89477539 C-77.71241058 195.89511246 -77.3198407 194.89544952 -76.91537476 193.86549377 C-76.48697296 192.78710739 -76.05857117 191.70872101 -75.6171875 190.59765625 C-75.1713028 189.46565292 -74.72541809 188.3336496 -74.26602173 187.16734314 C-73.05754149 184.10157354 -71.84538567 181.03728944 -70.63156128 177.97363281 C-69.36002366 174.76162958 -68.09334046 171.54771313 -66.82617188 168.33398438 C-64.32947664 162.00411664 -61.82777129 155.67624121 -59.32458496 149.34893799 C-57.53974609 144.83634357 -55.75777934 140.32261883 -53.9765625 135.80859375 C-53.38729995 134.31542513 -52.79802613 132.82226097 -52.20874023 131.32910156 C-51.92634491 130.61355103 -51.64394958 129.89800049 -51.35299683 129.1607666 C-50.48711861 126.96736953 -49.62069831 124.77418725 -48.75415039 122.58105469 C-43.73016302 109.86390717 -38.72642027 97.13882739 -33.72665405 84.41213989 C-32.78831116 82.02364729 -31.84985602 79.63519878 -30.9112854 77.24679565 C-26.13832397 65.10068282 -21.36958528 52.95295566 -16.62062073 40.79743958 C-14.75568833 36.02415031 -12.88909143 31.25151255 -11.02255249 26.47885132 C-9.70686693 23.11205928 -8.39405912 19.7441542 -7.08129883 16.3762207 C-6.28741489 14.34581006 -5.49339605 12.31545216 -4.69921875 10.28515625 C-4.15556168 8.88635223 -4.15556168 8.88635223 -3.60092163 7.45928955 C-3.27073029 6.61686707 -2.94053894 5.77444458 -2.6003418 4.90649414 C-2.31362106 4.1716127 -2.02690033 3.43673126 -1.73149109 2.67958069 C-1 1 -1 1 0 0 Z " fill="#7B86F5" transform="translate(420,297)"/>
<path d="M0 0 C19.14 0 38.28 0 58 0 C58 95.7 58 191.4 58 290 C38.86 290 19.72 290 0 290 C0 194.3 0 98.6 0 0 Z " fill="#FEFEFE" transform="translate(697,399)"/>
<path d="M0 0 C12.87 0 25.74 0 39 0 C39 73.26 39 146.52 39 222 C83.55 222 128.1 222 174 222 C174 233.55 174 245.1 174 257 C116.58 257 59.16 257 0 257 C0 172.19 0 87.38 0 0 Z " fill="#5170FF" transform="translate(1318,132)"/>
<path d="M0 0 C12.87 0 25.74 0 39 0 C39 73.26 39 146.52 39 222 C83.55 222 128.1 222 174 222 C174 233.55 174 245.1 174 257 C116.58 257 59.16 257 0 257 C0 172.19 0 87.38 0 0 Z " fill="#5170FF" transform="translate(1055,132)"/>
<path d="M0 0 C19.14 0 38.28 0 58 0 C58 20.46 58 40.92 58 62 C38.86 62 19.72 62 0 62 C0 41.54 0 21.08 0 0 Z " fill="#FDFEFE" transform="translate(697,294)"/>
<path d="M0 0 C85.47 0 170.94 0 259 0 C259 1.98 259 3.96 259 6 C173.53 6 88.06 6 0 6 C0 4.02 0 2.04 0 0 Z " fill="#5170FF" transform="translate(1145,516)"/>
<path d="M0 0 C79.53 0 159.06 0 241 0 C241 1.98 241 3.96 241 6 C210.44244166 6.02278992 179.88488526 6.04049794 149.32732046 6.05106533 C145.72350334 6.05231611 142.11968624 6.05361042 138.51586914 6.05493164 C137.43964129 6.05532511 137.43964129 6.05532511 136.34167146 6.05572652 C124.70906332 6.06008331 113.07646009 6.06797091 101.44385488 6.0771528 C89.51656947 6.08648909 77.58928665 6.09205556 65.66199774 6.09408849 C58.95891102 6.09534006 52.25583457 6.0983618 45.55275154 6.10573006 C39.25164821 6.11248607 32.95056072 6.11461782 26.64945412 6.11310768 C24.32940332 6.1133842 22.00935203 6.11539179 19.68930435 6.11920547 C16.53671057 6.12413618 13.38417765 6.1230006 10.23158264 6.12025452 C9.30066789 6.12316736 8.36975314 6.1260802 7.41062886 6.12908131 C1.11412121 6.11412121 1.11412121 6.11412121 0 5 C0 3.35 0 1.7 0 0 Z " fill="#5170FF" transform="translate(1530,516)"/>
<path d="M0 0 C4.29450053 2.92806855 6.83867375 5.93832171 8.6875 10.8125 C9.70531709 17.93721962 9.20863069 23.0663201 5 29 C0.35650289 33.86511856 -3.35108703 36.1292957 -10.1875 36.3125 C-15.64269173 36.2547731 -19.57663685 35.22079397 -24 32 C-28.43977614 27.44338765 -30.2855317 22.90004957 -30.3125 16.5625 C-30.17980571 11.06305889 -29.36795469 7.42642271 -25.41796875 3.37890625 C-17.50127911 -3.81338041 -9.60045862 -5.07194041 0 0 Z " fill="#5170FF" transform="translate(1478,502)"/>
</svg>
